<svg width="39" height="38" viewBox="0 0 39 38" fill="none" xmlns="http://www.w3.org/2000/svg">
<path fill-rule="evenodd" clip-rule="evenodd" d="M28.0138 22.4222C27.5506 22.1904 25.2736 21.0703 24.849 20.9158C24.4244 20.7614 24.1158 20.6841 23.807 21.1476C23.4982 21.6111 22.6106 22.654 22.3404 22.963C22.0703 23.2719 21.8001 23.3107 21.337 23.0788C20.8738 22.8472 19.3815 22.3582 17.6125 20.7808C16.2357 19.5532 15.3062 18.0368 15.0359 17.5733C14.7658 17.1098 15.0072 16.8592 15.2391 16.6284C15.4474 16.421 15.7022 16.0877 15.9338 15.8173C16.1653 15.5469 16.2425 15.3538 16.3969 15.0448C16.5513 14.7358 16.4741 14.4654 16.3583 14.2336C16.2425 14.0019 15.3163 11.7229 14.9303 10.7959C14.5544 9.8931 14.1726 10.0153 13.8883 10.0011C13.6184 9.98765 13.3094 9.98481 13.0006 9.98481C12.6918 9.98481 12.1901 10.1007 11.7655 10.5642C11.341 11.0277 10.1446 12.1479 10.1446 14.4267C10.1446 16.7057 11.8042 18.9073 12.0357 19.2163C12.2673 19.5254 15.3016 24.202 19.9476 26.2075C21.0526 26.6845 21.9154 26.9694 22.5879 27.1829C23.6975 27.5352 24.7071 27.4855 25.5051 27.3663C26.3949 27.2333 28.2454 26.2461 28.6313 25.1646C29.0172 24.0831 29.0172 23.1561 28.9014 22.963C28.7857 22.7699 28.4769 22.654 28.0138 22.4222ZM19.5637 33.9571H19.5575C16.793 33.9561 14.0815 33.2137 11.7161 31.8104L11.1535 31.4766L5.32257 33.0057L6.87898 27.3224L6.5126 26.7397C4.97044 24.2876 4.15595 21.4533 4.15711 18.5432C4.16049 10.0515 11.0718 3.14288 19.5699 3.14288C23.6848 3.14448 27.553 4.74861 30.4618 7.65968C33.3705 10.5708 34.9716 14.4405 34.97 18.5557C34.9665 27.0481 28.0553 33.9571 19.5637 33.9571ZM32.6749 5.44755C29.1753 1.94503 24.5213 0.0152092 19.5628 0.0132484C9.34608 0.0132484 1.03089 8.32523 1.02679 18.542C1.02546 21.8079 1.87894 24.9959 3.50097 27.8058L0.871338 37.408L10.6975 34.8313C13.4049 36.3075 16.4531 37.0854 19.5554 37.0867H19.563H19.563C29.7788 37.0867 38.0947 28.7737 38.0988 18.5568C38.1007 13.6056 36.1745 8.94999 32.6749 5.44755Z" fill="white"/>
</svg>
