<svg width="14" height="13" viewBox="0 0 14 13" fill="none" xmlns="http://www.w3.org/2000/svg">
<path fill-rule="evenodd" clip-rule="evenodd" d="M1.70711 0.792893C1.31658 0.402369 0.683417 0.402369 0.292893 0.792893C-0.0976311 1.18342 -0.0976311 1.81658 0.292893 2.20711L4.58579 6.5L0.292893 10.7929C-0.0976311 11.1834 -0.0976311 11.8166 0.292893 12.2071C0.683417 12.5976 1.31658 12.5976 1.70711 12.2071L6.70711 7.20711C7.09763 6.81658 7.09763 6.18342 6.70711 5.79289L1.70711 0.792893ZM8.70711 0.792893C8.31658 0.402369 7.68342 0.402369 7.29289 0.792893C6.90237 1.18342 6.90237 1.81658 7.29289 2.20711L11.5858 6.5L7.29289 10.7929C6.90237 11.1834 6.90237 11.8166 7.29289 12.2071C7.68342 12.5976 8.31658 12.5976 8.70711 12.2071L13.7071 7.20711C14.0976 6.81658 14.0976 6.18342 13.7071 5.79289L8.70711 0.792893Z" fill="#031737"/>
</svg>
