<svg width="18" height="22" viewBox="0 0 18 22" fill="none" xmlns="http://www.w3.org/2000/svg">
<path fill-rule="evenodd" clip-rule="evenodd" d="M4.05025 4.05025C5.36301 2.7375 7.14348 2 9 2C10.8565 2 12.637 2.7375 13.9497 4.05025C15.2625 5.36301 16 7.14348 16 9C16 11.605 14.2295 14.3616 12.2526 16.5856C11.2876 17.6713 10.3195 18.5792 9.5915 19.2162C9.36881 19.411 9.16928 19.5799 9 19.7202C8.83072 19.5799 8.63119 19.411 8.4085 19.2162C7.68054 18.5792 6.71242 17.6713 5.74741 16.5856C3.77047 14.3616 2 11.605 2 9C2 7.14348 2.7375 5.36301 4.05025 4.05025ZM8.39953 21.7997C8.39978 21.7998 8.4 21.8 9 21L8.4 21.8C8.75556 22.0667 9.24444 22.0667 9.6 21.8L9 21C9.6 21.8 9.60022 21.7998 9.60047 21.7997L9.60112 21.7992L9.60297 21.7978L9.60883 21.7933L9.62909 21.778C9.64632 21.7648 9.67093 21.746 9.70242 21.7216C9.76539 21.6728 9.85594 21.6017 9.97014 21.51C10.1984 21.3265 10.5218 21.0597 10.9085 20.7213C11.6805 20.0458 12.7124 19.0787 13.7474 17.9144C15.7705 15.6384 18 12.395 18 9C18 6.61305 17.0518 4.32387 15.364 2.63604C13.6761 0.948212 11.3869 0 9 0C6.61305 0 4.32387 0.948212 2.63604 2.63604C0.948212 4.32387 0 6.61305 0 9C0 12.395 2.22953 15.6384 4.25259 17.9144C5.28758 19.0787 6.31946 20.0458 7.0915 20.7213C7.47822 21.0597 7.80155 21.3265 8.02986 21.51C8.14406 21.6017 8.23461 21.6728 8.29758 21.7216C8.32907 21.746 8.35368 21.7648 8.37091 21.778L8.39117 21.7933L8.39703 21.7978L8.39888 21.7992L8.39953 21.7997ZM7 9C7 7.89543 7.89543 7 9 7C10.1046 7 11 7.89543 11 9C11 10.1046 10.1046 11 9 11C7.89543 11 7 10.1046 7 9ZM9 5C6.79086 5 5 6.79086 5 9C5 11.2091 6.79086 13 9 13C11.2091 13 13 11.2091 13 9C13 6.79086 11.2091 5 9 5Z" fill="#031737"/>
</svg>
