<svg width="22" height="18" viewBox="0 0 22 18" fill="none" xmlns="http://www.w3.org/2000/svg">
<path fill-rule="evenodd" clip-rule="evenodd" d="M1.99988 3C1.99988 2.44772 2.4476 2 2.99988 2H18.9999C19.5522 2 19.9999 2.44772 19.9999 3V3.45063L11.499 8.85258L11.4967 8.85398C11.3476 8.9468 11.1755 8.99601 10.9999 8.99601C10.8242 8.99601 10.6521 8.9468 10.503 8.85398L1.99988 3.45063V3ZM-0.000117349 3.98313C-0.00028656 3.99375 -0.00028625 4.00437 -0.000117349 4.01499V15C-0.000117349 16.6569 1.34303 18 2.99988 18H18.9999C20.6567 18 21.9999 16.6569 21.9999 15V4.015C22.0001 4.00438 22.0001 3.99375 21.9999 3.98311V3C21.9999 1.34315 20.6567 0 18.9999 0H2.99988C1.34303 0 -0.000117349 1.34315 -0.000117349 3V3.98313ZM19.9999 5.82027V15C19.9999 15.5523 19.5522 16 18.9999 16H2.99988C2.4476 16 1.99988 15.5523 1.99988 15V5.82027L9.43356 10.544L9.43354 10.544L9.43895 10.5474C9.90682 10.8405 10.4478 10.996 10.9999 10.996C11.552 10.996 12.0929 10.8405 12.5608 10.5474L12.5608 10.5474L12.5662 10.544L19.9999 5.82027Z" fill="#031737"/>
</svg>
