<svg width="264" height="68" viewBox="0 0 264 68" fill="none" xmlns="http://www.w3.org/2000/svg">
<g filter="url(#filter0_d_2058_183)">
<g clip-path="url(#clip0_2058_183)">
<rect width="70" height="60" transform="translate(4 4)" fill="#F9F9F9"/>
<mask id="mask0_2058_183" style="mask-type:alpha" maskUnits="userSpaceOnUse" x="18" y="13" width="42" height="42">
<path d="M38.9128 13.8334L21.7286 13.854L26.2407 18.3661C21.7205 22.059 18.8333 27.6768 18.8333 33.9693C18.8333 34.0384 18.8337 34.1073 18.8344 34.1762L18.8516 51.2711L23.367 46.759C27.0599 51.2793 32.6777 54.1664 38.9702 54.1664C45.5186 54.1664 51.3362 51.0408 55.0137 46.2001L47.6179 38.7265C45.9085 41.8879 42.5656 43.9193 38.9704 43.9193C35.7379 43.9193 32.5183 42.0212 30.8014 39.3266L36.0365 34.0915L29.0812 34.0901C29.0807 34.0499 29.0805 34.0098 29.0805 33.9695C29.0805 30.737 30.9786 27.5174 33.6731 25.8004L38.9083 31.0356L38.9097 24.0813C38.9499 24.0808 38.9902 24.0805 39.0305 24.0805C42.263 24.0805 45.4826 25.9786 47.1995 28.6732L41.9644 33.9083L59.1661 33.9117L59.1666 33.9129L59.146 16.7287L54.6339 21.2408C50.941 16.7205 45.3232 13.8334 39.0307 13.8334C38.9912 13.8334 38.9523 13.8331 38.9128 13.8334Z" fill="black"/>
</mask>
<g mask="url(#mask0_2058_183)">
<path d="M59.1667 33.9128C59.1667 33.8825 59.1461 16.7286 59.1461 16.7286L54.634 21.2407C50.9411 16.7204 45.3232 13.8333 39.0307 13.8333C32.4823 13.8333 26.6647 16.9589 22.9872 21.7996L30.3831 29.2732C32.0925 26.1118 35.4353 24.0804 39.0305 24.0804C42.263 24.0804 45.4827 25.9785 47.1996 28.6731L41.9644 33.9082L59.1661 33.9116" fill="#1C3AA9"/>
<g filter="url(#filter1_d_2058_183)">
<path d="M38.9128 13.8333L21.7286 13.8539L26.2407 18.366C21.7205 22.0589 18.8333 27.6767 18.8333 33.9692C18.8333 40.5176 21.9591 46.3352 26.7996 50.0127L34.2733 42.6168C31.1119 40.9075 29.0805 37.5646 29.0805 33.9694C29.0805 30.7369 30.9786 27.5173 33.6731 25.8003L38.9083 31.0355L38.9117 13.8338" fill="#4285F4"/>
</g>
<g filter="url(#filter2_d_2058_183)">
<path d="M18.8343 34.0869L18.8517 51.2711L23.367 46.759C27.0599 51.2793 32.6777 54.1664 38.9702 54.1664C45.5186 54.1664 51.3362 51.0407 55.0138 46.2001L47.6179 38.7264C45.9085 41.8878 42.5657 43.9193 38.9705 43.9193C35.738 43.9193 32.5183 42.0212 30.8014 39.3266L36.0366 34.0914L18.8349 34.0881" fill="#ABABAB"/>
</g>
</g>
<rect width="186" height="60" transform="translate(74 4)" fill="#4A90E2"/>
<path d="M92.0693 22.4521V30.6406H90.8887V21.1318H91.9678L92.0693 22.4521ZM96.6968 24.5088V24.6421C96.6968 25.1414 96.6375 25.6048 96.519 26.0322C96.4006 26.4554 96.2271 26.8236 95.9985 27.1367C95.7743 27.4499 95.4971 27.6932 95.167 27.8667C94.8369 28.0402 94.4582 28.127 94.0308 28.127C93.5949 28.127 93.2098 28.055 92.8755 27.9111C92.5412 27.7673 92.2576 27.5578 92.0249 27.2827C91.7922 27.0076 91.606 26.6776 91.4663 26.2925C91.3309 25.9074 91.2378 25.4736 91.187 24.9912V24.2803C91.2378 23.7725 91.333 23.3175 91.4727 22.9155C91.6123 22.5135 91.7964 22.1707 92.0249 21.8872C92.2576 21.5994 92.5391 21.3815 92.8691 21.2334C93.1992 21.0811 93.5801 21.0049 94.0117 21.0049C94.4434 21.0049 94.8263 21.0895 95.1606 21.2588C95.495 21.4238 95.7764 21.6608 96.0049 21.9697C96.2334 22.2786 96.4048 22.6489 96.519 23.0806C96.6375 23.508 96.6968 23.984 96.6968 24.5088ZM95.5161 24.6421V24.5088C95.5161 24.166 95.4801 23.8444 95.4082 23.5439C95.3363 23.2393 95.2241 22.9727 95.0718 22.7441C94.9237 22.5114 94.7332 22.3294 94.5005 22.1982C94.2677 22.0628 93.9906 21.9951 93.6689 21.9951C93.3727 21.9951 93.1146 22.0459 92.8945 22.1475C92.6787 22.249 92.4946 22.3866 92.3423 22.5601C92.1899 22.7293 92.0651 22.924 91.9678 23.144C91.8747 23.3599 91.8049 23.5841 91.7583 23.8169V25.4609C91.8429 25.7572 91.9614 26.0365 92.1138 26.2988C92.2661 26.557 92.4692 26.7664 92.7231 26.9272C92.9771 27.0838 93.2965 27.1621 93.6816 27.1621C93.999 27.1621 94.272 27.0965 94.5005 26.9653C94.7332 26.8299 94.9237 26.6458 95.0718 26.4131C95.2241 26.1803 95.3363 25.9137 95.4082 25.6133C95.4801 25.3086 95.5161 24.9849 95.5161 24.6421ZM99.3691 22.2109V28H98.1948V21.1318H99.3374L99.3691 22.2109ZM101.515 21.0938L101.508 22.1855C101.411 22.1644 101.318 22.1517 101.229 22.1475C101.144 22.139 101.047 22.1348 100.937 22.1348C100.666 22.1348 100.427 22.1771 100.22 22.2617C100.012 22.3464 99.8368 22.4648 99.6929 22.6172C99.549 22.7695 99.4347 22.9515 99.3501 23.1631C99.2697 23.3704 99.2168 23.599 99.1914 23.8486L98.8613 24.0391C98.8613 23.6243 98.9015 23.235 98.9819 22.8711C99.0666 22.5072 99.1956 22.1855 99.3691 21.9062C99.5426 21.6227 99.7627 21.4027 100.029 21.2461C100.3 21.0853 100.622 21.0049 100.994 21.0049C101.079 21.0049 101.176 21.0155 101.286 21.0366C101.396 21.0535 101.472 21.0726 101.515 21.0938ZM102.162 24.6421V24.4961C102.162 24.001 102.234 23.5418 102.378 23.1187C102.522 22.6912 102.729 22.321 103 22.0078C103.271 21.6904 103.599 21.445 103.984 21.2715C104.369 21.0938 104.801 21.0049 105.279 21.0049C105.761 21.0049 106.195 21.0938 106.58 21.2715C106.969 21.445 107.299 21.6904 107.57 22.0078C107.845 22.321 108.055 22.6912 108.199 23.1187C108.343 23.5418 108.415 24.001 108.415 24.4961V24.6421C108.415 25.1372 108.343 25.5964 108.199 26.0195C108.055 26.4427 107.845 26.813 107.57 27.1304C107.299 27.4435 106.972 27.689 106.586 27.8667C106.206 28.0402 105.774 28.127 105.292 28.127C104.809 28.127 104.375 28.0402 103.99 27.8667C103.605 27.689 103.275 27.4435 103 27.1304C102.729 26.813 102.522 26.4427 102.378 26.0195C102.234 25.5964 102.162 25.1372 102.162 24.6421ZM103.336 24.4961V24.6421C103.336 24.9849 103.377 25.3086 103.457 25.6133C103.537 25.9137 103.658 26.1803 103.819 26.4131C103.984 26.6458 104.189 26.8299 104.435 26.9653C104.68 27.0965 104.966 27.1621 105.292 27.1621C105.613 27.1621 105.895 27.0965 106.136 26.9653C106.381 26.8299 106.584 26.6458 106.745 26.4131C106.906 26.1803 107.027 25.9137 107.107 25.6133C107.192 25.3086 107.234 24.9849 107.234 24.6421V24.4961C107.234 24.1576 107.192 23.8381 107.107 23.5376C107.027 23.2329 106.904 22.9642 106.739 22.7314C106.578 22.4945 106.375 22.3083 106.129 22.1729C105.888 22.0374 105.605 21.9697 105.279 21.9697C104.957 21.9697 104.674 22.0374 104.428 22.1729C104.187 22.3083 103.984 22.4945 103.819 22.7314C103.658 22.9642 103.537 23.2329 103.457 23.5376C103.377 23.8381 103.336 24.1576 103.336 24.4961ZM112.763 21.1318V22.0332H109.049V21.1318H112.763ZM110.306 19.4624H111.48V26.2988C111.48 26.5316 111.516 26.7072 111.588 26.8257C111.66 26.9442 111.753 27.0225 111.868 27.0605C111.982 27.0986 112.105 27.1177 112.236 27.1177C112.333 27.1177 112.435 27.1092 112.541 27.0923C112.651 27.0711 112.733 27.0542 112.788 27.0415L112.794 28C112.701 28.0296 112.579 28.0571 112.426 28.0825C112.278 28.1121 112.098 28.127 111.887 28.127C111.599 28.127 111.334 28.0698 111.093 27.9556C110.852 27.8413 110.66 27.6509 110.516 27.3843C110.376 27.1134 110.306 26.7495 110.306 26.2925V19.4624ZM116.99 28.127C116.512 28.127 116.078 28.0465 115.689 27.8857C115.304 27.7207 114.972 27.4901 114.692 27.1938C114.417 26.8976 114.206 26.5464 114.058 26.1401C113.91 25.7339 113.835 25.2896 113.835 24.8071V24.5405C113.835 23.9819 113.918 23.4847 114.083 23.0488C114.248 22.6087 114.472 22.2363 114.756 21.9316C115.039 21.627 115.361 21.3963 115.721 21.2397C116.08 21.0832 116.453 21.0049 116.838 21.0049C117.329 21.0049 117.752 21.0895 118.107 21.2588C118.467 21.4281 118.761 21.665 118.99 21.9697C119.218 22.2702 119.388 22.6257 119.498 23.0361C119.608 23.4424 119.663 23.8867 119.663 24.3691V24.896H114.534V23.9375H118.488V23.8486C118.471 23.5439 118.408 23.2477 118.298 22.96C118.192 22.6722 118.023 22.4352 117.79 22.249C117.557 22.0628 117.24 21.9697 116.838 21.9697C116.571 21.9697 116.326 22.0269 116.102 22.1411C115.877 22.2511 115.685 22.4162 115.524 22.6362C115.363 22.8563 115.238 23.125 115.149 23.4424C115.061 23.7598 115.016 24.1258 115.016 24.5405V24.8071C115.016 25.133 115.061 25.4398 115.149 25.7275C115.243 26.0111 115.376 26.2607 115.549 26.4766C115.727 26.6924 115.941 26.8617 116.19 26.9844C116.444 27.1071 116.732 27.1685 117.054 27.1685C117.468 27.1685 117.82 27.0838 118.107 26.9146C118.395 26.7453 118.647 26.5189 118.863 26.2354L119.574 26.8003C119.426 27.0246 119.237 27.2383 119.009 27.4414C118.78 27.6445 118.499 27.8096 118.165 27.9365C117.834 28.0635 117.443 28.127 116.99 28.127ZM123.782 27.1621C124.062 27.1621 124.32 27.105 124.557 26.9907C124.794 26.8765 124.988 26.7199 125.141 26.521C125.293 26.3179 125.38 26.0872 125.401 25.8291H126.518C126.497 26.2354 126.359 26.6141 126.105 26.9653C125.856 27.3123 125.528 27.5938 125.122 27.8096C124.715 28.0212 124.269 28.127 123.782 28.127C123.266 28.127 122.815 28.036 122.43 27.854C122.049 27.672 121.732 27.4224 121.478 27.105C121.228 26.7876 121.04 26.4237 120.913 26.0132C120.79 25.5985 120.729 25.1605 120.729 24.6992V24.4326C120.729 23.9714 120.79 23.5355 120.913 23.125C121.04 22.7103 121.228 22.3442 121.478 22.0269C121.732 21.7095 122.049 21.4598 122.43 21.2778C122.815 21.0959 123.266 21.0049 123.782 21.0049C124.32 21.0049 124.789 21.1149 125.191 21.335C125.593 21.5508 125.909 21.847 126.137 22.2236C126.37 22.596 126.497 23.0192 126.518 23.4932H125.401C125.38 23.2096 125.299 22.9536 125.16 22.7251C125.024 22.4966 124.838 22.3146 124.601 22.1792C124.368 22.0396 124.095 21.9697 123.782 21.9697C123.423 21.9697 123.12 22.0417 122.875 22.1855C122.633 22.3252 122.441 22.5156 122.297 22.7568C122.157 22.9938 122.056 23.2583 121.992 23.5503C121.933 23.8381 121.903 24.1322 121.903 24.4326V24.6992C121.903 24.9997 121.933 25.2959 121.992 25.5879C122.051 25.8799 122.151 26.1444 122.291 26.3813C122.434 26.6183 122.627 26.8088 122.868 26.9526C123.114 27.0923 123.418 27.1621 123.782 27.1621ZM130.714 21.1318V22.0332H127V21.1318H130.714ZM128.257 19.4624H129.432V26.2988C129.432 26.5316 129.468 26.7072 129.54 26.8257C129.611 26.9442 129.705 27.0225 129.819 27.0605C129.933 27.0986 130.056 27.1177 130.187 27.1177C130.284 27.1177 130.386 27.1092 130.492 27.0923C130.602 27.0711 130.684 27.0542 130.739 27.0415L130.746 28C130.653 28.0296 130.53 28.0571 130.377 28.0825C130.229 28.1121 130.049 28.127 129.838 28.127C129.55 28.127 129.286 28.0698 129.044 27.9556C128.803 27.8413 128.611 27.6509 128.467 27.3843C128.327 27.1134 128.257 26.7495 128.257 26.2925V19.4624ZM134.941 28.127C134.463 28.127 134.029 28.0465 133.64 27.8857C133.255 27.7207 132.923 27.4901 132.644 27.1938C132.368 26.8976 132.157 26.5464 132.009 26.1401C131.861 25.7339 131.787 25.2896 131.787 24.8071V24.5405C131.787 23.9819 131.869 23.4847 132.034 23.0488C132.199 22.6087 132.424 22.2363 132.707 21.9316C132.991 21.627 133.312 21.3963 133.672 21.2397C134.032 21.0832 134.404 21.0049 134.789 21.0049C135.28 21.0049 135.703 21.0895 136.059 21.2588C136.418 21.4281 136.712 21.665 136.941 21.9697C137.169 22.2702 137.339 22.6257 137.449 23.0361C137.559 23.4424 137.614 23.8867 137.614 24.3691V24.896H132.485V23.9375H136.439V23.8486C136.423 23.5439 136.359 23.2477 136.249 22.96C136.143 22.6722 135.974 22.4352 135.741 22.249C135.508 22.0628 135.191 21.9697 134.789 21.9697C134.522 21.9697 134.277 22.0269 134.053 22.1411C133.828 22.2511 133.636 22.4162 133.475 22.6362C133.314 22.8563 133.189 23.125 133.101 23.4424C133.012 23.7598 132.967 24.1258 132.967 24.5405V24.8071C132.967 25.133 133.012 25.4398 133.101 25.7275C133.194 26.0111 133.327 26.2607 133.5 26.4766C133.678 26.6924 133.892 26.8617 134.142 26.9844C134.396 27.1071 134.683 27.1685 135.005 27.1685C135.42 27.1685 135.771 27.0838 136.059 26.9146C136.346 26.7453 136.598 26.5189 136.814 26.2354L137.525 26.8003C137.377 27.0246 137.188 27.2383 136.96 27.4414C136.731 27.6445 136.45 27.8096 136.116 27.9365C135.786 28.0635 135.394 28.127 134.941 28.127ZM143.314 26.667V18.25H144.495V28H143.416L143.314 26.667ZM138.693 24.6421V24.5088C138.693 23.984 138.756 23.508 138.883 23.0806C139.014 22.6489 139.199 22.2786 139.436 21.9697C139.677 21.6608 139.962 21.4238 140.292 21.2588C140.627 21.0895 140.999 21.0049 141.41 21.0049C141.841 21.0049 142.218 21.0811 142.54 21.2334C142.865 21.3815 143.14 21.5994 143.365 21.8872C143.593 22.1707 143.773 22.5135 143.904 22.9155C144.035 23.3175 144.126 23.7725 144.177 24.2803V24.8643C144.131 25.3678 144.04 25.8206 143.904 26.2227C143.773 26.6247 143.593 26.9674 143.365 27.251C143.14 27.5345 142.865 27.7524 142.54 27.9048C142.214 28.0529 141.833 28.127 141.397 28.127C140.995 28.127 140.627 28.0402 140.292 27.8667C139.962 27.6932 139.677 27.4499 139.436 27.1367C139.199 26.8236 139.014 26.4554 138.883 26.0322C138.756 25.6048 138.693 25.1414 138.693 24.6421ZM139.874 24.5088V24.6421C139.874 24.9849 139.907 25.3065 139.975 25.6069C140.047 25.9074 140.157 26.1719 140.305 26.4004C140.453 26.6289 140.642 26.8088 140.87 26.9399C141.099 27.0669 141.372 27.1304 141.689 27.1304C142.078 27.1304 142.398 27.0479 142.647 26.8828C142.901 26.7178 143.104 26.4998 143.257 26.229C143.409 25.9582 143.528 25.6641 143.612 25.3467V23.8169C143.562 23.5841 143.487 23.3599 143.39 23.144C143.297 22.924 143.174 22.7293 143.022 22.5601C142.874 22.3866 142.69 22.249 142.47 22.1475C142.254 22.0459 141.998 21.9951 141.702 21.9951C141.38 21.9951 141.103 22.0628 140.87 22.1982C140.642 22.3294 140.453 22.5114 140.305 22.7441C140.157 22.9727 140.047 23.2393 139.975 23.5439C139.907 23.8444 139.874 24.166 139.874 24.5088ZM149.541 18.25H150.722V26.667L150.62 28H149.541V18.25ZM155.362 24.5088V24.6421C155.362 25.1414 155.303 25.6048 155.184 26.0322C155.066 26.4554 154.892 26.8236 154.664 27.1367C154.435 27.4499 154.156 27.6932 153.826 27.8667C153.496 28.0402 153.117 28.127 152.689 28.127C152.254 28.127 151.871 28.0529 151.541 27.9048C151.215 27.7524 150.94 27.5345 150.715 27.251C150.491 26.9674 150.311 26.6247 150.176 26.2227C150.045 25.8206 149.954 25.3678 149.903 24.8643V24.2803C149.954 23.7725 150.045 23.3175 150.176 22.9155C150.311 22.5135 150.491 22.1707 150.715 21.8872C150.94 21.5994 151.215 21.3815 151.541 21.2334C151.866 21.0811 152.245 21.0049 152.677 21.0049C153.108 21.0049 153.491 21.0895 153.826 21.2588C154.16 21.4238 154.439 21.6608 154.664 21.9697C154.892 22.2786 155.066 22.6489 155.184 23.0806C155.303 23.508 155.362 23.984 155.362 24.5088ZM154.181 24.6421V24.5088C154.181 24.166 154.149 23.8444 154.086 23.5439C154.022 23.2393 153.921 22.9727 153.781 22.7441C153.642 22.5114 153.458 22.3294 153.229 22.1982C153 22.0628 152.719 21.9951 152.385 21.9951C152.089 21.9951 151.83 22.0459 151.61 22.1475C151.395 22.249 151.21 22.3866 151.058 22.5601C150.906 22.7293 150.781 22.924 150.684 23.144C150.59 23.3599 150.521 23.5841 150.474 23.8169V25.3467C150.542 25.6429 150.652 25.9285 150.804 26.2036C150.961 26.4744 151.168 26.6966 151.426 26.8701C151.689 27.0436 152.012 27.1304 152.397 27.1304C152.715 27.1304 152.986 27.0669 153.21 26.9399C153.438 26.8088 153.623 26.6289 153.762 26.4004C153.906 26.1719 154.012 25.9074 154.08 25.6069C154.147 25.3065 154.181 24.9849 154.181 24.6421ZM158.701 27.2891L160.611 21.1318H161.868L159.113 29.0601C159.05 29.2293 158.965 29.4113 158.859 29.606C158.758 29.8049 158.627 29.9932 158.466 30.1709C158.305 30.3486 158.11 30.4925 157.882 30.6025C157.658 30.7168 157.389 30.7739 157.076 30.7739C156.983 30.7739 156.864 30.7612 156.72 30.7358C156.576 30.7104 156.475 30.6893 156.416 30.6724L156.409 29.7202C156.443 29.7244 156.496 29.7287 156.568 29.7329C156.644 29.7414 156.697 29.7456 156.727 29.7456C156.993 29.7456 157.22 29.7096 157.406 29.6377C157.592 29.57 157.749 29.4536 157.875 29.2886C158.007 29.1278 158.119 28.9056 158.212 28.6221L158.701 27.2891ZM157.298 21.1318L159.082 26.4639L159.386 27.7017L158.542 28.1333L156.016 21.1318H157.298ZM167.581 22.4395V28H166.051V21.1318H167.511L167.581 22.4395ZM169.682 21.0874L169.669 22.5093C169.576 22.4924 169.475 22.4797 169.365 22.4712C169.259 22.4627 169.153 22.4585 169.047 22.4585C168.785 22.4585 168.554 22.4966 168.355 22.5728C168.157 22.6447 167.989 22.7505 167.854 22.8901C167.723 23.0256 167.621 23.1906 167.549 23.3853C167.477 23.5799 167.435 23.7979 167.422 24.0391L167.073 24.0645C167.073 23.6328 167.116 23.2329 167.2 22.8647C167.285 22.4966 167.412 22.1729 167.581 21.8936C167.755 21.6143 167.97 21.3963 168.229 21.2397C168.491 21.0832 168.793 21.0049 169.136 21.0049C169.229 21.0049 169.329 21.0133 169.435 21.0303C169.545 21.0472 169.627 21.0662 169.682 21.0874ZM173.542 28.127C173.034 28.127 172.575 28.0444 172.164 27.8794C171.758 27.7101 171.411 27.4753 171.123 27.1748C170.84 26.8743 170.622 26.521 170.469 26.1147C170.317 25.7085 170.241 25.2705 170.241 24.8008V24.5469C170.241 24.0094 170.319 23.5228 170.476 23.0869C170.632 22.651 170.85 22.2786 171.129 21.9697C171.409 21.6566 171.739 21.4175 172.12 21.2524C172.5 21.0874 172.913 21.0049 173.357 21.0049C173.848 21.0049 174.278 21.0874 174.646 21.2524C175.014 21.4175 175.319 21.6502 175.56 21.9507C175.806 22.2469 175.987 22.6003 176.106 23.0107C176.229 23.4212 176.29 23.874 176.29 24.3691V25.0229H170.983V23.9248H174.779V23.8042C174.771 23.5291 174.716 23.271 174.614 23.0298C174.517 22.7886 174.367 22.5939 174.164 22.4458C173.96 22.2977 173.69 22.2236 173.351 22.2236C173.097 22.2236 172.871 22.2786 172.672 22.3887C172.477 22.4945 172.314 22.6489 172.183 22.8521C172.052 23.0552 171.95 23.3006 171.878 23.5884C171.811 23.8719 171.777 24.1914 171.777 24.5469V24.8008C171.777 25.1012 171.817 25.3805 171.897 25.6387C171.982 25.8926 172.105 26.1147 172.266 26.3052C172.426 26.4956 172.621 26.6458 172.85 26.7559C173.078 26.8617 173.338 26.9146 173.63 26.9146C173.999 26.9146 174.326 26.8405 174.614 26.6924C174.902 26.5443 175.152 26.3348 175.363 26.064L176.169 26.8447C176.021 27.0605 175.829 27.2679 175.592 27.4668C175.355 27.6615 175.065 27.8201 174.722 27.9429C174.384 28.0656 173.99 28.127 173.542 28.127ZM183.095 24.9912H184.682C184.631 25.5964 184.462 26.1359 184.174 26.6099C183.886 27.0796 183.482 27.4499 182.961 27.7207C182.441 27.9915 181.808 28.127 181.063 28.127C180.492 28.127 179.978 28.0254 179.521 27.8223C179.064 27.6149 178.673 27.3229 178.347 26.9463C178.021 26.5654 177.771 26.1063 177.598 25.5688C177.428 25.0314 177.344 24.4305 177.344 23.7661V22.998C177.344 22.3337 177.431 21.7327 177.604 21.1953C177.782 20.6579 178.036 20.1987 178.366 19.8179C178.696 19.4328 179.091 19.1387 179.553 18.9355C180.018 18.7324 180.541 18.6309 181.121 18.6309C181.857 18.6309 182.479 18.7663 182.987 19.0371C183.495 19.3079 183.888 19.6825 184.167 20.1606C184.451 20.6388 184.625 21.1868 184.688 21.8047H183.101C183.059 21.4069 182.966 21.0662 182.822 20.7827C182.682 20.4992 182.475 20.2834 182.2 20.1353C181.925 19.9829 181.565 19.9067 181.121 19.9067C180.757 19.9067 180.439 19.9744 180.168 20.1099C179.898 20.2453 179.671 20.4442 179.489 20.7065C179.307 20.9689 179.17 21.2926 179.077 21.6777C178.988 22.0586 178.943 22.4945 178.943 22.9854V23.7661C178.943 24.2316 178.984 24.6548 179.064 25.0356C179.149 25.4123 179.276 25.736 179.445 26.0068C179.618 26.2777 179.838 26.4871 180.105 26.6353C180.372 26.7834 180.691 26.8574 181.063 26.8574C181.516 26.8574 181.882 26.7855 182.162 26.6416C182.445 26.4977 182.659 26.2882 182.803 26.0132C182.951 25.7339 183.048 25.3932 183.095 24.9912ZM189.728 19.9893L186.967 28H185.297L188.776 18.7578H189.842L189.728 19.9893ZM192.039 28L189.271 19.9893L189.15 18.7578H190.223L193.714 28H192.039ZM191.905 24.5723V25.8354H186.878V24.5723H191.905ZM198.259 24.5532H195.854V23.29H198.259C198.678 23.29 199.017 23.2223 199.275 23.0869C199.533 22.9515 199.721 22.7653 199.84 22.5283C199.963 22.2871 200.024 22.012 200.024 21.7031C200.024 21.4111 199.963 21.1382 199.84 20.8843C199.721 20.6261 199.533 20.4188 199.275 20.2622C199.017 20.1056 198.678 20.0273 198.259 20.0273H196.342V28H194.749V18.7578H198.259C198.974 18.7578 199.582 18.8848 200.081 19.1387C200.585 19.3883 200.968 19.7354 201.23 20.1797C201.492 20.6198 201.624 21.1234 201.624 21.6904C201.624 22.2871 201.492 22.7992 201.23 23.2266C200.968 23.654 200.585 23.9819 200.081 24.2104C199.582 24.439 198.974 24.5532 198.259 24.5532ZM206.854 18.7578V28H205.273V18.7578H206.854ZM209.755 18.7578V20.0273H202.398V18.7578H209.755ZM216.255 24.9912H217.842C217.791 25.5964 217.622 26.1359 217.334 26.6099C217.046 27.0796 216.642 27.4499 216.122 27.7207C215.601 27.9915 214.968 28.127 214.224 28.127C213.652 28.127 213.138 28.0254 212.681 27.8223C212.224 27.6149 211.833 27.3229 211.507 26.9463C211.181 26.5654 210.931 26.1063 210.758 25.5688C210.589 25.0314 210.504 24.4305 210.504 23.7661V22.998C210.504 22.3337 210.591 21.7327 210.764 21.1953C210.942 20.6579 211.196 20.1987 211.526 19.8179C211.856 19.4328 212.252 19.1387 212.713 18.9355C213.178 18.7324 213.701 18.6309 214.281 18.6309C215.017 18.6309 215.639 18.7663 216.147 19.0371C216.655 19.3079 217.048 19.6825 217.328 20.1606C217.611 20.6388 217.785 21.1868 217.848 21.8047H216.261C216.219 21.4069 216.126 21.0662 215.982 20.7827C215.842 20.4992 215.635 20.2834 215.36 20.1353C215.085 19.9829 214.725 19.9067 214.281 19.9067C213.917 19.9067 213.599 19.9744 213.329 20.1099C213.058 20.2453 212.831 20.4442 212.649 20.7065C212.467 20.9689 212.33 21.2926 212.237 21.6777C212.148 22.0586 212.104 22.4945 212.104 22.9854V23.7661C212.104 24.2316 212.144 24.6548 212.224 25.0356C212.309 25.4123 212.436 25.736 212.605 26.0068C212.778 26.2777 212.999 26.4871 213.265 26.6353C213.532 26.7834 213.851 26.8574 214.224 26.8574C214.676 26.8574 215.042 26.7855 215.322 26.6416C215.605 26.4977 215.819 26.2882 215.963 26.0132C216.111 25.7339 216.208 25.3932 216.255 24.9912ZM225.396 22.6172V23.8804H220.489V22.6172H225.396ZM220.882 18.7578V28H219.289V18.7578H220.882ZM226.621 18.7578V28H225.034V18.7578H226.621ZM232.232 19.9893L229.471 28H227.801L231.28 18.7578H232.346L232.232 19.9893ZM234.542 28L231.775 19.9893L231.654 18.7578H232.727L236.218 28H234.542ZM234.409 24.5723V25.8354H229.382V24.5723H234.409Z" fill="white"/>
<path d="M93.4473 44.2119H91.5479V43.4453H93.4473C93.8151 43.4453 94.113 43.3867 94.3408 43.2695C94.5687 43.1523 94.7347 42.9896 94.8389 42.7812C94.9463 42.5729 95 42.3353 95 42.0684C95 41.8242 94.9463 41.5947 94.8389 41.3799C94.7347 41.165 94.5687 40.9925 94.3408 40.8623C94.113 40.7288 93.8151 40.6621 93.4473 40.6621H91.7676V47H90.8252V39.8906H93.4473C93.9844 39.8906 94.4385 39.9834 94.8096 40.1689C95.1807 40.3545 95.4622 40.6117 95.6543 40.9404C95.8464 41.266 95.9424 41.6387 95.9424 42.0586C95.9424 42.5143 95.8464 42.9033 95.6543 43.2256C95.4622 43.5479 95.1807 43.7936 94.8096 43.9629C94.4385 44.1289 93.9844 44.2119 93.4473 44.2119ZM97.8004 42.5469V47H96.8971V41.7168H97.776L97.8004 42.5469ZM99.4508 41.6875L99.4459 42.5273C99.371 42.5111 99.2994 42.5013 99.2311 42.498C99.166 42.4915 99.0911 42.4883 99.0064 42.4883C98.7981 42.4883 98.6142 42.5208 98.4547 42.5859C98.2952 42.651 98.1601 42.7422 98.0494 42.8594C97.9387 42.9766 97.8508 43.1165 97.7857 43.2793C97.7239 43.4388 97.6832 43.6146 97.6637 43.8066L97.4098 43.9531C97.4098 43.6341 97.4407 43.3346 97.5025 43.0547C97.5676 42.7747 97.6669 42.5273 97.8004 42.3125C97.9339 42.0944 98.1031 41.9251 98.3082 41.8047C98.5165 41.681 98.7639 41.6191 99.0504 41.6191C99.1155 41.6191 99.1904 41.6273 99.275 41.6436C99.3596 41.6566 99.4182 41.6712 99.4508 41.6875ZM101.167 41.7168V47H100.259V41.7168H101.167ZM100.191 40.3154C100.191 40.1689 100.235 40.0452 100.322 39.9443C100.414 39.8434 100.547 39.793 100.723 39.793C100.895 39.793 101.027 39.8434 101.118 39.9443C101.213 40.0452 101.26 40.1689 101.26 40.3154C101.26 40.4554 101.213 40.5758 101.118 40.6768C101.027 40.7744 100.895 40.8232 100.723 40.8232C100.547 40.8232 100.414 40.7744 100.322 40.6768C100.235 40.5758 100.191 40.4554 100.191 40.3154ZM104.124 46.1846L105.569 41.7168H106.492L104.593 47H103.987L104.124 46.1846ZM102.918 41.7168L104.407 46.209L104.51 47H103.904L101.99 41.7168H102.918ZM110.298 46.0967V43.377C110.298 43.1686 110.256 42.988 110.171 42.835C110.09 42.6787 109.966 42.5583 109.8 42.4736C109.634 42.389 109.429 42.3467 109.185 42.3467C108.957 42.3467 108.757 42.3857 108.584 42.4639C108.415 42.542 108.282 42.6445 108.184 42.7715C108.09 42.8984 108.042 43.0352 108.042 43.1816H107.139C107.139 42.9928 107.188 42.8057 107.286 42.6201C107.383 42.4346 107.523 42.2669 107.705 42.1172C107.891 41.9642 108.112 41.8438 108.37 41.7559C108.63 41.6647 108.92 41.6191 109.239 41.6191C109.623 41.6191 109.961 41.6842 110.254 41.8145C110.551 41.9447 110.782 42.1416 110.948 42.4053C111.117 42.6657 111.202 42.9928 111.202 43.3867V45.8477C111.202 46.0234 111.216 46.2106 111.246 46.4092C111.278 46.6077 111.325 46.7786 111.387 46.9219V47H110.445C110.399 46.8958 110.363 46.7575 110.337 46.585C110.311 46.4092 110.298 46.2464 110.298 46.0967ZM110.454 43.7969L110.464 44.4316H109.551C109.294 44.4316 109.065 44.4528 108.863 44.4951C108.661 44.5342 108.492 44.5944 108.355 44.6758C108.218 44.7572 108.114 44.8597 108.042 44.9834C107.971 45.1038 107.935 45.2454 107.935 45.4082C107.935 45.5742 107.972 45.7256 108.047 45.8623C108.122 45.999 108.234 46.1081 108.384 46.1895C108.537 46.2676 108.724 46.3066 108.946 46.3066C109.222 46.3066 109.467 46.248 109.678 46.1309C109.89 46.0137 110.057 45.8704 110.181 45.7012C110.308 45.5319 110.376 45.3675 110.386 45.208L110.772 45.6426C110.749 45.7793 110.687 45.9307 110.586 46.0967C110.485 46.2627 110.35 46.4222 110.181 46.5752C110.015 46.7249 109.816 46.8503 109.585 46.9512C109.357 47.0488 109.1 47.0977 108.814 47.0977C108.456 47.0977 108.142 47.0277 107.871 46.8877C107.605 46.7477 107.396 46.5605 107.246 46.3262C107.1 46.0885 107.027 45.8232 107.027 45.5303C107.027 45.2471 107.082 44.998 107.193 44.7832C107.303 44.5651 107.463 44.3844 107.671 44.2412C107.88 44.0947 108.13 43.984 108.423 43.9092C108.716 43.8343 109.043 43.7969 109.405 43.7969H110.454ZM114.637 46.3555C114.852 46.3555 115.05 46.3115 115.232 46.2236C115.415 46.1357 115.564 46.0153 115.682 45.8623C115.799 45.7061 115.866 45.5286 115.882 45.3301H116.741C116.725 45.6426 116.619 45.9339 116.424 46.2041C116.232 46.471 115.979 46.6875 115.667 46.8535C115.354 47.0163 115.011 47.0977 114.637 47.0977C114.24 47.0977 113.893 47.0277 113.597 46.8877C113.304 46.7477 113.06 46.5557 112.864 46.3115C112.672 46.0674 112.527 45.7874 112.43 45.4717C112.335 45.1527 112.288 44.8158 112.288 44.4609V44.2559C112.288 43.901 112.335 43.5658 112.43 43.25C112.527 42.931 112.672 42.6494 112.864 42.4053C113.06 42.1611 113.304 41.9691 113.597 41.8291C113.893 41.6891 114.24 41.6191 114.637 41.6191C115.05 41.6191 115.411 41.7038 115.721 41.873C116.03 42.0391 116.272 42.2669 116.448 42.5566C116.627 42.8431 116.725 43.1686 116.741 43.5332H115.882C115.866 43.3151 115.804 43.1182 115.696 42.9424C115.592 42.7666 115.449 42.6266 115.267 42.5225C115.088 42.415 114.878 42.3613 114.637 42.3613C114.36 42.3613 114.127 42.4167 113.938 42.5273C113.753 42.6348 113.605 42.7812 113.494 42.9668C113.387 43.1491 113.309 43.3525 113.26 43.5771C113.214 43.7985 113.191 44.0247 113.191 44.2559V44.4609C113.191 44.6921 113.214 44.9199 113.26 45.1445C113.305 45.3691 113.382 45.5726 113.489 45.7549C113.6 45.9372 113.748 46.0837 113.934 46.1943C114.122 46.3018 114.357 46.3555 114.637 46.3555ZM119.141 46.4531L120.611 41.7168H121.578L119.459 47.8154C119.41 47.9456 119.345 48.0856 119.263 48.2354C119.185 48.3883 119.084 48.5332 118.961 48.6699C118.837 48.8066 118.687 48.9173 118.511 49.002C118.339 49.0898 118.132 49.1338 117.891 49.1338C117.82 49.1338 117.728 49.124 117.618 49.1045C117.507 49.085 117.429 49.0687 117.383 49.0557L117.379 48.3232C117.405 48.3265 117.445 48.3298 117.501 48.333C117.559 48.3395 117.6 48.3428 117.623 48.3428C117.828 48.3428 118.002 48.3151 118.145 48.2598C118.288 48.2077 118.409 48.1182 118.506 47.9912C118.607 47.8675 118.694 47.6966 118.765 47.4785L119.141 46.4531ZM118.062 41.7168L119.434 45.8184L119.669 46.7705L119.019 47.1025L117.076 41.7168H118.062ZM126.554 43.6064V44.3486H124.171V43.6064H126.554ZM132.286 39.8906V47H131.358V39.8906H132.286ZM134.571 39.8906V40.6621H129.078V39.8906H134.571ZM137.093 47.0977C136.726 47.0977 136.392 47.0358 136.092 46.9121C135.796 46.7852 135.541 46.6077 135.326 46.3799C135.114 46.152 134.951 45.8818 134.838 45.5693C134.724 45.2568 134.667 44.915 134.667 44.5439V44.3389C134.667 43.9092 134.73 43.5267 134.857 43.1914C134.984 42.8529 135.157 42.5664 135.375 42.332C135.593 42.0977 135.84 41.9202 136.117 41.7998C136.393 41.6794 136.68 41.6191 136.976 41.6191C137.354 41.6191 137.679 41.6842 137.953 41.8145C138.229 41.9447 138.456 42.127 138.631 42.3613C138.807 42.5924 138.937 42.8659 139.022 43.1816C139.107 43.4941 139.149 43.8359 139.149 44.207V44.6123H135.204V43.875H138.246V43.8066C138.233 43.5723 138.184 43.3444 138.099 43.123C138.018 42.9017 137.888 42.7194 137.709 42.5762C137.53 42.4329 137.285 42.3613 136.976 42.3613C136.771 42.3613 136.582 42.4053 136.41 42.4932C136.237 42.5778 136.089 42.7048 135.965 42.874C135.842 43.0433 135.746 43.25 135.677 43.4941C135.609 43.7383 135.575 44.0199 135.575 44.3389V44.5439C135.575 44.7946 135.609 45.0306 135.677 45.252C135.749 45.4701 135.851 45.6621 135.985 45.8281C136.122 45.9941 136.286 46.1243 136.478 46.2188C136.673 46.3132 136.895 46.3604 137.142 46.3604C137.461 46.3604 137.731 46.2952 137.953 46.165C138.174 46.0348 138.368 45.8607 138.534 45.6426L139.081 46.0771C138.967 46.2497 138.822 46.4141 138.646 46.5703C138.47 46.7266 138.254 46.8535 137.997 46.9512C137.743 47.0488 137.442 47.0977 137.093 47.0977ZM141.007 42.5469V47H140.104V41.7168H140.983L141.007 42.5469ZM142.657 41.6875L142.653 42.5273C142.578 42.5111 142.506 42.5013 142.438 42.498C142.373 42.4915 142.298 42.4883 142.213 42.4883C142.005 42.4883 141.821 42.5208 141.661 42.5859C141.502 42.651 141.367 42.7422 141.256 42.8594C141.145 42.9766 141.057 43.1165 140.992 43.2793C140.931 43.4388 140.89 43.6146 140.87 43.8066L140.616 43.9531C140.616 43.6341 140.647 43.3346 140.709 43.0547C140.774 42.7747 140.874 42.5273 141.007 42.3125C141.14 42.0944 141.31 41.9251 141.515 41.8047C141.723 41.681 141.971 41.6191 142.257 41.6191C142.322 41.6191 142.397 41.6273 142.482 41.6436C142.566 41.6566 142.625 41.6712 142.657 41.6875ZM144.291 42.7666V47H143.383V41.7168H144.242L144.291 42.7666ZM144.105 44.1582L143.685 44.1436C143.689 43.7822 143.736 43.4486 143.827 43.1426C143.918 42.8333 144.053 42.5648 144.232 42.3369C144.411 42.109 144.634 41.9333 144.901 41.8096C145.168 41.6826 145.477 41.6191 145.829 41.6191C146.076 41.6191 146.304 41.6549 146.513 41.7266C146.721 41.7949 146.901 41.904 147.054 42.0537C147.207 42.2035 147.326 42.3955 147.411 42.6299C147.496 42.8643 147.538 43.1475 147.538 43.4795V47H146.635V43.5234C146.635 43.2467 146.587 43.0254 146.493 42.8594C146.402 42.6934 146.272 42.5729 146.102 42.498C145.933 42.4199 145.735 42.3809 145.507 42.3809C145.24 42.3809 145.017 42.4281 144.838 42.5225C144.659 42.6169 144.515 42.7471 144.408 42.9131C144.301 43.0791 144.222 43.2695 144.174 43.4844C144.128 43.696 144.105 43.9206 144.105 44.1582ZM147.528 43.6602L146.923 43.8457C146.926 43.556 146.973 43.2777 147.064 43.0107C147.159 42.7438 147.294 42.5062 147.47 42.2979C147.649 42.0895 147.868 41.9251 148.129 41.8047C148.389 41.681 148.687 41.6191 149.022 41.6191C149.305 41.6191 149.556 41.6566 149.774 41.7314C149.996 41.8063 150.181 41.9219 150.331 42.0781C150.484 42.2311 150.599 42.4281 150.678 42.6689C150.756 42.9098 150.795 43.1963 150.795 43.5283V47H149.887V43.5186C149.887 43.2223 149.839 42.9928 149.745 42.8301C149.654 42.6641 149.524 42.5485 149.354 42.4834C149.188 42.415 148.99 42.3809 148.759 42.3809C148.56 42.3809 148.384 42.415 148.231 42.4834C148.078 42.5518 147.95 42.6462 147.846 42.7666C147.741 42.8838 147.662 43.0189 147.606 43.1719C147.554 43.3249 147.528 43.4876 147.528 43.6602ZM155.138 45.5986C155.138 45.4684 155.109 45.348 155.05 45.2373C154.995 45.1234 154.879 45.0208 154.704 44.9297C154.531 44.8353 154.271 44.7539 153.922 44.6855C153.629 44.6237 153.364 44.5505 153.126 44.4658C152.892 44.3812 152.692 44.2786 152.526 44.1582C152.363 44.0378 152.238 43.8962 152.15 43.7334C152.062 43.5706 152.018 43.3802 152.018 43.1621C152.018 42.9538 152.064 42.7568 152.155 42.5713C152.249 42.3857 152.381 42.2214 152.55 42.0781C152.723 41.9349 152.929 41.8226 153.17 41.7412C153.411 41.6598 153.68 41.6191 153.976 41.6191C154.399 41.6191 154.76 41.694 155.06 41.8438C155.359 41.9935 155.589 42.1937 155.748 42.4443C155.908 42.6917 155.988 42.9668 155.988 43.2695H155.084C155.084 43.123 155.04 42.9814 154.953 42.8447C154.868 42.7048 154.743 42.5892 154.577 42.498C154.414 42.4069 154.214 42.3613 153.976 42.3613C153.725 42.3613 153.522 42.4004 153.366 42.4785C153.213 42.5534 153.1 42.6494 153.029 42.7666C152.96 42.8838 152.926 43.0075 152.926 43.1377C152.926 43.2354 152.942 43.3232 152.975 43.4014C153.011 43.4762 153.073 43.5462 153.161 43.6113C153.248 43.6732 153.372 43.7318 153.532 43.7871C153.691 43.8424 153.895 43.8978 154.142 43.9531C154.575 44.0508 154.931 44.168 155.211 44.3047C155.491 44.4414 155.7 44.609 155.836 44.8076C155.973 45.0062 156.041 45.2471 156.041 45.5303C156.041 45.7614 155.993 45.973 155.895 46.165C155.801 46.3571 155.662 46.5231 155.48 46.6631C155.301 46.7998 155.086 46.9072 154.835 46.9854C154.588 47.0602 154.31 47.0977 154 47.0977C153.535 47.0977 153.141 47.0146 152.819 46.8486C152.496 46.6826 152.252 46.4678 152.086 46.2041C151.92 45.9404 151.837 45.6621 151.837 45.3691H152.746C152.759 45.6165 152.83 45.8135 152.96 45.96C153.091 46.1032 153.25 46.2057 153.439 46.2676C153.628 46.3262 153.815 46.3555 154 46.3555C154.248 46.3555 154.454 46.3229 154.621 46.2578C154.79 46.1927 154.918 46.1032 155.006 45.9893C155.094 45.8753 155.138 45.7451 155.138 45.5986Z" fill="white"/>
</g>
</g>
<defs>
<filter id="filter0_d_2058_183" x="0" y="0" width="264" height="68" filterUnits="userSpaceOnUse" color-interpolation-filters="sRGB">
<feFlood flood-opacity="0" result="BackgroundImageFix"/>
<feColorMatrix in="SourceAlpha" type="matrix" values="0 0 0 0 0 0 0 0 0 0 0 0 0 0 0 0 0 0 127 0" result="hardAlpha"/>
<feOffset/>
<feGaussianBlur stdDeviation="2"/>
<feColorMatrix type="matrix" values="0 0 0 0 0 0 0 0 0 0 0 0 0 0 0 0 0 0 0.12 0"/>
<feBlend mode="normal" in2="BackgroundImageFix" result="effect1_dropShadow_2058_183"/>
<feBlend mode="normal" in="SourceGraphic" in2="effect1_dropShadow_2058_183" result="shape"/>
</filter>
<filter id="filter1_d_2058_183" x="12.8333" y="7.83325" width="32.0795" height="48.1794" filterUnits="userSpaceOnUse" color-interpolation-filters="sRGB">
<feFlood flood-opacity="0" result="BackgroundImageFix"/>
<feColorMatrix in="SourceAlpha" type="matrix" values="0 0 0 0 0 0 0 0 0 0 0 0 0 0 0 0 0 0 127 0" result="hardAlpha"/>
<feOffset/>
<feGaussianBlur stdDeviation="3"/>
<feColorMatrix type="matrix" values="0 0 0 0 0 0 0 0 0 0 0 0 0 0 0 0 0 0 0.24 0"/>
<feBlend mode="normal" in2="BackgroundImageFix" result="effect1_dropShadow_2058_183"/>
<feBlend mode="normal" in="SourceGraphic" in2="effect1_dropShadow_2058_183" result="shape"/>
</filter>
<filter id="filter2_d_2058_183" x="12.8343" y="28.0869" width="48.1795" height="32.0796" filterUnits="userSpaceOnUse" color-interpolation-filters="sRGB">
<feFlood flood-opacity="0" result="BackgroundImageFix"/>
<feColorMatrix in="SourceAlpha" type="matrix" values="0 0 0 0 0 0 0 0 0 0 0 0 0 0 0 0 0 0 127 0" result="hardAlpha"/>
<feOffset/>
<feGaussianBlur stdDeviation="3"/>
<feColorMatrix type="matrix" values="0 0 0 0 0 0 0 0 0 0 0 0 0 0 0 0 0 0 0.24 0"/>
<feBlend mode="normal" in2="BackgroundImageFix" result="effect1_dropShadow_2058_183"/>
<feBlend mode="normal" in="SourceGraphic" in2="effect1_dropShadow_2058_183" result="shape"/>
</filter>
<clipPath id="clip0_2058_183">
<rect x="4" y="4" width="256" height="60" rx="3" fill="white"/>
</clipPath>
</defs>
</svg>
