<svg width="27" height="28" viewBox="0 0 27 28" fill="none" xmlns="http://www.w3.org/2000/svg">
<g clip-path="url(#clip0_2004_266)">
<path d="M26.5344 22.8447H0.465538C0.208459 22.8447 0 22.6362 0 22.3792V5.62057C0 5.36349 0.208459 5.15503 0.465538 5.15503H26.5345C26.7915 5.15503 27 5.36349 27 5.62057V22.3792C26.9999 22.6363 26.7915 22.8447 26.5344 22.8447Z" fill="#F5F5F5"/>
<path d="M26.9999 6.51584H0V5.62057C0 5.36349 0.208459 5.15503 0.465538 5.15503H26.5345C26.7915 5.15503 27 5.36349 27 5.62057L26.9999 6.51584Z" fill="#FF4B55"/>
<path d="M26.9999 10.5981H0V11.9589H26.9999V10.5981Z" fill="#FF4B55"/>
<path d="M26.9999 7.87646H0V9.23722H26.9999V7.87646Z" fill="#FF4B55"/>
<path d="M26.9999 14.6804H0.465538C0.208459 14.6804 0 14.4719 0 14.2149V13.3196H26.9999V14.6804Z" fill="#FF4B55"/>
<path d="M26.9999 18.7629H0V20.1237H26.9999V18.7629Z" fill="#FF4B55"/>
<path d="M26.5344 22.8449H0.465538C0.208459 22.8449 0 22.6364 0 22.3793V21.4841H26.9999V22.3794C26.9999 22.6365 26.7915 22.8449 26.5344 22.8449Z" fill="#FF4B55"/>
<path d="M26.9999 16.0413H0V17.402H26.9999V16.0413Z" fill="#FF4B55"/>
<path d="M12.1034 5.15527H0.465538C0.208459 5.15527 0 5.36368 0 5.62076V14.2149C0 14.4719 0.208459 14.6804 0.465538 14.6804H12.1035C12.3605 14.6804 12.569 14.4719 12.569 14.2149V5.62076C12.5689 5.36368 12.3605 5.15527 12.1034 5.15527Z" fill="#41479B"/>
<path d="M1.30782 6.22386L1.41087 6.53288L1.73661 6.53536C1.77879 6.53573 1.79625 6.58952 1.76234 6.61457L1.5003 6.8081L1.5986 7.11865C1.61136 7.15884 1.56554 7.19217 1.53121 7.16759L1.26622 6.97822L1.00123 7.16764C0.966897 7.19217 0.921177 7.15889 0.933833 7.11871L1.03213 6.80816L0.770093 6.61462C0.736185 6.58952 0.75364 6.53578 0.795827 6.53541L1.12157 6.53294L1.22461 6.22391C1.2379 6.18383 1.29443 6.18383 1.30782 6.22386Z" fill="#F5F5F5"/>
<path d="M1.30746 7.84028L1.4105 8.1493L1.73624 8.15178C1.77843 8.15215 1.79588 8.20594 1.76197 8.23098L1.49994 8.42452L1.59823 8.73507C1.611 8.77525 1.56517 8.80858 1.53084 8.78401L1.26585 8.59464L1.00086 8.78406C0.966531 8.80858 0.920811 8.77531 0.933467 8.73512L1.03176 8.42457L0.769727 8.23104C0.735819 8.20594 0.753274 8.1522 0.795461 8.15183L1.1212 8.14935L1.22424 7.84033C1.23753 7.8003 1.29406 7.8003 1.30746 7.84028Z" fill="#F5F5F5"/>
<path d="M1.30746 9.45673L1.4105 9.76575L1.73624 9.76823C1.77843 9.7686 1.79588 9.82239 1.76197 9.84744L1.49994 10.041L1.59823 10.3515C1.611 10.3917 1.56517 10.425 1.53084 10.4005L1.26585 10.2111L1.00086 10.4005C0.966531 10.425 0.920811 10.3918 0.933467 10.3516L1.03176 10.041L0.769727 9.84749C0.735819 9.82239 0.753274 9.76865 0.795461 9.76828L1.1212 9.76581L1.22424 9.45678C1.23753 9.41676 1.29406 9.41676 1.30746 9.45673Z" fill="#F5F5F5"/>
<path d="M1.30746 11.0732L1.4105 11.3822L1.73624 11.3847C1.77843 11.3851 1.79588 11.4389 1.76197 11.4639L1.49994 11.6575L1.59823 11.968C1.611 12.0082 1.56517 12.0415 1.53084 12.017L1.26585 11.8276L1.00086 12.017C0.966531 12.0415 0.920811 12.0083 0.933467 11.9681L1.03176 11.6575L0.769727 11.464C0.735819 11.4389 0.753274 11.3851 0.795461 11.3848L1.1212 11.3823L1.22424 11.0733C1.23753 11.0332 1.29406 11.0332 1.30746 11.0732Z" fill="#F5F5F5"/>
<path d="M1.30746 12.6897L1.4105 12.9987L1.73624 13.0012C1.77843 13.0016 1.79588 13.0554 1.76197 13.0804L1.49994 13.274L1.59823 13.5845C1.611 13.6247 1.56517 13.658 1.53084 13.6335L1.26585 13.4441L1.00086 13.6335C0.966531 13.658 0.920811 13.6248 0.933467 13.5846L1.03176 13.274L0.769727 13.0805C0.735819 13.0554 0.753274 13.0016 0.795461 13.0013L1.1212 12.9988L1.22424 12.6898C1.23753 12.6496 1.29406 12.6496 1.30746 12.6897Z" fill="#F5F5F5"/>
<path d="M2.5621 7.01631L2.66514 7.32533L2.99088 7.32781C3.03307 7.32818 3.05052 7.38197 3.01661 7.40702L2.75458 7.60055L2.85287 7.9111C2.86564 7.95129 2.81981 7.98461 2.78548 7.96004L2.52049 7.77062L2.2555 7.96004C2.22117 7.98456 2.17545 7.95129 2.18811 7.9111L2.2864 7.60055L2.02437 7.40702C1.99046 7.38191 2.00791 7.32818 2.0501 7.32781L2.37584 7.32533L2.47888 7.01631C2.49212 6.97633 2.54876 6.97633 2.5621 7.01631Z" fill="#F5F5F5"/>
<path d="M2.5621 8.6328L2.66514 8.94182L2.99088 8.9443C3.03307 8.94467 3.05052 8.99846 3.01661 9.02351L2.75458 9.21704L2.85287 9.5276C2.86564 9.56778 2.81981 9.60111 2.78548 9.57653L2.52049 9.38711L2.2555 9.57653C2.22117 9.60105 2.17545 9.56783 2.18811 9.5276L2.2864 9.21704L2.02437 9.02351C1.99046 8.99841 2.00791 8.94467 2.0501 8.9443L2.37584 8.94182L2.47888 8.6328C2.49212 8.59278 2.54876 8.59278 2.5621 8.6328Z" fill="#F5F5F5"/>
<path d="M2.5621 10.2493L2.66514 10.5583L2.99088 10.5608C3.03307 10.5611 3.05052 10.6149 3.01661 10.64L2.75458 10.8335L2.85287 11.1441C2.86564 11.1842 2.81981 11.2176 2.78548 11.193L2.52049 11.0036L2.2555 11.193C2.22117 11.2175 2.17545 11.1842 2.18811 11.1441L2.2864 10.8335L2.02437 10.64C1.99046 10.6149 2.00791 10.5611 2.0501 10.5608L2.37584 10.5583L2.47888 10.2493C2.49212 10.2092 2.54876 10.2092 2.5621 10.2493Z" fill="#F5F5F5"/>
<path d="M2.5621 11.8659L2.66514 12.1749L2.99088 12.1774C3.03307 12.1778 3.05052 12.2316 3.01661 12.2566L2.75458 12.4502L2.85287 12.7607C2.86564 12.8009 2.81981 12.8342 2.78548 12.8096L2.52049 12.6202L2.2555 12.8096C2.22117 12.8342 2.17545 12.8009 2.18811 12.7607L2.2864 12.4502L2.02437 12.2566C1.99046 12.2315 2.00791 12.1778 2.0501 12.1774L2.37584 12.1749L2.47888 11.8659C2.49212 11.8259 2.54876 11.8259 2.5621 11.8659Z" fill="#F5F5F5"/>
<path d="M3.81686 6.22387L3.9199 6.53289L4.24564 6.53537C4.28783 6.53574 4.30528 6.58953 4.27137 6.61457L4.00934 6.80811L4.10763 7.11866C4.1204 7.15884 4.07457 7.19217 4.04024 7.1676L3.77525 6.97818L3.51026 7.1676C3.47593 7.19212 3.43021 7.15884 3.44287 7.11866L3.54116 6.80811L3.27913 6.61457C3.24522 6.58947 3.26267 6.53574 3.30486 6.53537L3.6306 6.53289L3.73364 6.22387C3.74693 6.18384 3.80352 6.18384 3.81686 6.22387Z" fill="#F5F5F5"/>
<path d="M3.81686 7.84028L3.9199 8.1493L4.24564 8.15178C4.28783 8.15215 4.30528 8.20594 4.27137 8.23099L4.00934 8.42452L4.10763 8.73508C4.1204 8.77526 4.07457 8.80859 4.04024 8.78401L3.77525 8.59459L3.51026 8.78401C3.47593 8.80854 3.43021 8.77526 3.44287 8.73508L3.54116 8.42452L3.27913 8.23099C3.24522 8.20589 3.26267 8.15215 3.30486 8.15178L3.6306 8.1493L3.73364 7.84028C3.74693 7.80031 3.80352 7.80031 3.81686 7.84028Z" fill="#F5F5F5"/>
<path d="M3.81686 9.45674L3.9199 9.76576L4.24564 9.76824C4.28783 9.76861 4.30528 9.8224 4.27137 9.84745L4.00934 10.041L4.10763 10.3515C4.1204 10.3917 4.07457 10.425 4.04024 10.4005L3.77525 10.211L3.51026 10.4005C3.47593 10.425 3.43021 10.3917 3.44287 10.3515L3.54116 10.041L3.27913 9.84745C3.24522 9.82235 3.26267 9.76861 3.30486 9.76824L3.6306 9.76576L3.73364 9.45674C3.74693 9.41676 3.80352 9.41676 3.81686 9.45674Z" fill="#F5F5F5"/>
<path d="M3.81686 11.0732L3.9199 11.3823L4.24564 11.3847C4.28783 11.3851 4.30528 11.4389 4.27137 11.4639L4.00934 11.6575L4.10763 11.968C4.1204 12.0082 4.07457 12.0415 4.04024 12.017L3.77525 11.8275L3.51026 12.017C3.47593 12.0415 3.43021 12.0082 3.44287 11.968L3.54116 11.6575L3.27913 11.4639C3.24522 11.4388 3.26267 11.3851 3.30486 11.3847L3.6306 11.3823L3.73364 11.0732C3.74693 11.0332 3.80352 11.0332 3.81686 11.0732Z" fill="#F5F5F5"/>
<path d="M3.81686 12.6897L3.9199 12.9987L4.24564 13.0012C4.28783 13.0016 4.30528 13.0554 4.27137 13.0804L4.00934 13.274L4.10763 13.5845C4.1204 13.6247 4.07457 13.658 4.04024 13.6335L3.77525 13.444L3.51026 13.6335C3.47593 13.658 3.43021 13.6247 3.44287 13.5845L3.54116 13.274L3.27913 13.0804C3.24522 13.0553 3.26267 13.0016 3.30486 13.0012L3.6306 12.9987L3.73364 12.6897C3.74693 12.6496 3.80352 12.6496 3.81686 12.6897Z" fill="#F5F5F5"/>
<path d="M5.07162 7.01631L5.17466 7.32533L5.5004 7.32781C5.54259 7.32818 5.56004 7.38197 5.52613 7.40702L5.2641 7.60055L5.36239 7.9111C5.37516 7.95129 5.32933 7.98461 5.295 7.96004L5.03001 7.77062L4.76502 7.96004C4.73069 7.98456 4.68497 7.95129 4.69763 7.9111L4.79592 7.60055L4.53389 7.40702C4.49998 7.38191 4.51743 7.32818 4.55962 7.32781L4.88536 7.32533L4.9884 7.01631C5.00164 6.97633 5.05828 6.97633 5.07162 7.01631Z" fill="#F5F5F5"/>
<path d="M5.07162 8.6328L5.17466 8.94182L5.5004 8.9443C5.54259 8.94467 5.56004 8.99846 5.52613 9.02351L5.2641 9.21704L5.36239 9.5276C5.37516 9.56778 5.32933 9.60111 5.295 9.57653L5.03001 9.38711L4.76502 9.57653C4.73069 9.60105 4.68497 9.56783 4.69763 9.5276L4.79592 9.21704L4.53389 9.02351C4.49998 8.99841 4.51743 8.94467 4.55962 8.9443L4.88536 8.94182L4.9884 8.6328C5.00164 8.59278 5.05828 8.59278 5.07162 8.6328Z" fill="#F5F5F5"/>
<path d="M5.07162 10.2493L5.17466 10.5583L5.5004 10.5608C5.54259 10.5611 5.56004 10.6149 5.52613 10.64L5.2641 10.8335L5.36239 11.1441C5.37516 11.1842 5.32933 11.2176 5.295 11.193L5.03001 11.0036L4.76502 11.193C4.73069 11.2175 4.68497 11.1842 4.69763 11.1441L4.79592 10.8335L4.53389 10.64C4.49998 10.6149 4.51743 10.5611 4.55962 10.5608L4.88536 10.5583L4.9884 10.2493C5.00164 10.2092 5.05828 10.2092 5.07162 10.2493Z" fill="#F5F5F5"/>
<path d="M5.07162 11.8659L5.17466 12.1749L5.5004 12.1774C5.54259 12.1778 5.56004 12.2316 5.52613 12.2566L5.2641 12.4502L5.36239 12.7607C5.37516 12.8009 5.32933 12.8342 5.295 12.8096L5.03001 12.6202L4.76502 12.8096C4.73069 12.8342 4.68497 12.8009 4.69763 12.7607L4.79592 12.4502L4.53389 12.2566C4.49998 12.2315 4.51743 12.1778 4.55962 12.1774L4.88536 12.1749L4.9884 11.8659C5.00164 11.8259 5.05828 11.8259 5.07162 11.8659Z" fill="#F5F5F5"/>
<path d="M6.32631 6.22387L6.42935 6.53289L6.75509 6.53537C6.79728 6.53574 6.81473 6.58953 6.78083 6.61457L6.51879 6.80811L6.61709 7.11866C6.62985 7.15884 6.58402 7.19217 6.54969 7.1676L6.28465 6.97818L6.01966 7.1676C5.98533 7.19212 5.93961 7.15884 5.95227 7.11866L6.05056 6.80811L5.78853 6.61457C5.75462 6.58947 5.77207 6.53574 5.81426 6.53537L6.14 6.53289L6.24304 6.22387C6.25638 6.18384 6.31297 6.18384 6.32631 6.22387Z" fill="#F5F5F5"/>
<path d="M6.32631 7.84028L6.42935 8.1493L6.75509 8.15178C6.79728 8.15215 6.81473 8.20594 6.78083 8.23099L6.51879 8.42452L6.61709 8.73508C6.62985 8.77526 6.58402 8.80859 6.54969 8.78401L6.28465 8.59459L6.01966 8.78401C5.98533 8.80854 5.93961 8.77526 5.95227 8.73508L6.05056 8.42452L5.78853 8.23099C5.75462 8.20589 5.77207 8.15215 5.81426 8.15178L6.14 8.1493L6.24304 7.84028C6.25638 7.80031 6.31297 7.80031 6.32631 7.84028Z" fill="#F5F5F5"/>
<path d="M6.32631 9.45674L6.42935 9.76576L6.75509 9.76824C6.79728 9.76861 6.81473 9.8224 6.78083 9.84745L6.51879 10.041L6.61709 10.3515C6.62985 10.3917 6.58402 10.425 6.54969 10.4005L6.28465 10.211L6.01966 10.4005C5.98533 10.425 5.93961 10.3917 5.95227 10.3515L6.05056 10.041L5.78853 9.84745C5.75462 9.82235 5.77207 9.76861 5.81426 9.76824L6.14 9.76576L6.24304 9.45674C6.25638 9.41676 6.31297 9.41676 6.32631 9.45674Z" fill="#F5F5F5"/>
<path d="M6.32631 11.0732L6.42935 11.3823L6.75509 11.3847C6.79728 11.3851 6.81473 11.4389 6.78083 11.4639L6.51879 11.6575L6.61709 11.968C6.62985 12.0082 6.58402 12.0415 6.54969 12.017L6.28465 11.8275L6.01966 12.017C5.98533 12.0415 5.93961 12.0082 5.95227 11.968L6.05056 11.6575L5.78853 11.4639C5.75462 11.4388 5.77207 11.3851 5.81426 11.3847L6.14 11.3823L6.24304 11.0732C6.25638 11.0332 6.31297 11.0332 6.32631 11.0732Z" fill="#F5F5F5"/>
<path d="M6.32631 12.6897L6.42935 12.9987L6.75509 13.0012C6.79728 13.0016 6.81473 13.0554 6.78083 13.0804L6.51879 13.274L6.61709 13.5845C6.62985 13.6247 6.58402 13.658 6.54969 13.6335L6.28465 13.444L6.01966 13.6335C5.98533 13.658 5.93961 13.6247 5.95227 13.5845L6.05056 13.274L5.78853 13.0804C5.75462 13.0553 5.77207 13.0016 5.81426 13.0012L6.14 12.9987L6.24304 12.6897C6.25638 12.6496 6.31297 12.6496 6.32631 12.6897Z" fill="#F5F5F5"/>
<path d="M7.58102 7.01631L7.68406 7.32533L8.0098 7.32781C8.05199 7.32818 8.06944 7.38197 8.03553 7.40702L7.7735 7.60055L7.87179 7.9111C7.88456 7.95129 7.83873 7.98461 7.8044 7.96004L7.53941 7.77062L7.27442 7.96004C7.24009 7.98456 7.19437 7.95129 7.20703 7.9111L7.30532 7.60055L7.04329 7.40702C7.00938 7.38191 7.02683 7.32818 7.06902 7.32781L7.39476 7.32533L7.4978 7.01631C7.51115 6.97633 7.56768 6.97633 7.58102 7.01631Z" fill="#F5F5F5"/>
<path d="M7.58102 8.6328L7.68406 8.94182L8.0098 8.9443C8.05199 8.94467 8.06944 8.99846 8.03553 9.02351L7.7735 9.21704L7.87179 9.5276C7.88456 9.56778 7.83873 9.60111 7.8044 9.57653L7.53941 9.38711L7.27442 9.57653C7.24009 9.60105 7.19437 9.56783 7.20703 9.5276L7.30532 9.21704L7.04329 9.02351C7.00938 8.99841 7.02683 8.94467 7.06902 8.9443L7.39476 8.94182L7.4978 8.6328C7.51115 8.59278 7.56768 8.59278 7.58102 8.6328Z" fill="#F5F5F5"/>
<path d="M7.58102 10.2493L7.68406 10.5583L8.0098 10.5608C8.05199 10.5611 8.06944 10.6149 8.03553 10.64L7.7735 10.8335L7.87179 11.1441C7.88456 11.1842 7.83873 11.2176 7.8044 11.193L7.53941 11.0036L7.27442 11.193C7.24009 11.2175 7.19437 11.1842 7.20703 11.1441L7.30532 10.8335L7.04329 10.64C7.00938 10.6149 7.02683 10.5611 7.06902 10.5608L7.39476 10.5583L7.4978 10.2493C7.51115 10.2092 7.56768 10.2092 7.58102 10.2493Z" fill="#F5F5F5"/>
<path d="M7.58102 11.8659L7.68406 12.1749L8.0098 12.1774C8.05199 12.1778 8.06944 12.2316 8.03553 12.2566L7.7735 12.4502L7.87179 12.7607C7.88456 12.8009 7.83873 12.8342 7.8044 12.8096L7.53941 12.6202L7.27442 12.8096C7.24009 12.8342 7.19437 12.8009 7.20703 12.7607L7.30532 12.4502L7.04329 12.2566C7.00938 12.2315 7.02683 12.1778 7.06902 12.1774L7.39476 12.1749L7.4978 11.8659C7.51115 11.8259 7.56768 11.8259 7.58102 11.8659Z" fill="#F5F5F5"/>
<path d="M8.8359 6.22387L8.93894 6.53289L9.26468 6.53537C9.30687 6.53574 9.32433 6.58953 9.29042 6.61457L9.02838 6.80811L9.12668 7.11866C9.13944 7.15884 9.09361 7.19217 9.05928 7.1676L8.79429 6.97818L8.5293 7.1676C8.49497 7.19212 8.44925 7.15884 8.46191 7.11866L8.56021 6.80811L8.29817 6.61457C8.26426 6.58947 8.28172 6.53574 8.3239 6.53537L8.64964 6.53289L8.75269 6.22387C8.76592 6.18384 8.82256 6.18384 8.8359 6.22387Z" fill="#F5F5F5"/>
<path d="M8.8359 7.84028L8.93894 8.1493L9.26468 8.15178C9.30687 8.15215 9.32433 8.20594 9.29042 8.23099L9.02838 8.42452L9.12668 8.73508C9.13944 8.77526 9.09361 8.80859 9.05928 8.78401L8.79429 8.59459L8.5293 8.78401C8.49497 8.80854 8.44925 8.77526 8.46191 8.73508L8.56021 8.42452L8.29817 8.23099C8.26426 8.20589 8.28172 8.15215 8.3239 8.15178L8.64964 8.1493L8.75269 7.84028C8.76592 7.80031 8.82256 7.80031 8.8359 7.84028Z" fill="#F5F5F5"/>
<path d="M8.8359 9.45674L8.93894 9.76576L9.26468 9.76824C9.30687 9.76861 9.32433 9.8224 9.29042 9.84745L9.02838 10.041L9.12668 10.3515C9.13944 10.3917 9.09361 10.425 9.05928 10.4005L8.79429 10.211L8.5293 10.4005C8.49497 10.425 8.44925 10.3917 8.46191 10.3515L8.56021 10.041L8.29817 9.84745C8.26426 9.82235 8.28172 9.76861 8.3239 9.76824L8.64964 9.76576L8.75269 9.45674C8.76592 9.41676 8.82256 9.41676 8.8359 9.45674Z" fill="#F5F5F5"/>
<path d="M8.8359 11.0732L8.93894 11.3823L9.26468 11.3847C9.30687 11.3851 9.32433 11.4389 9.29042 11.4639L9.02838 11.6575L9.12668 11.968C9.13944 12.0082 9.09361 12.0415 9.05928 12.017L8.79429 11.8275L8.5293 12.017C8.49497 12.0415 8.44925 12.0082 8.46191 11.968L8.56021 11.6575L8.29817 11.4639C8.26426 11.4388 8.28172 11.3851 8.3239 11.3847L8.64964 11.3823L8.75269 11.0732C8.76592 11.0332 8.82256 11.0332 8.8359 11.0732Z" fill="#F5F5F5"/>
<path d="M8.8359 12.6897L8.93894 12.9987L9.26468 13.0012C9.30687 13.0016 9.32433 13.0554 9.29042 13.0804L9.02838 13.274L9.12668 13.5845C9.13944 13.6247 9.09361 13.658 9.05928 13.6335L8.79429 13.444L8.5293 13.6335C8.49497 13.658 8.44925 13.6247 8.46191 13.5845L8.56021 13.274L8.29817 13.0804C8.26426 13.0553 8.28172 13.0016 8.3239 13.0012L8.64964 12.9987L8.75269 12.6897C8.76592 12.6496 8.82256 12.6496 8.8359 12.6897Z" fill="#F5F5F5"/>
<path d="M10.0904 7.01631L10.1935 7.32533L10.5192 7.32781C10.5614 7.32818 10.5788 7.38197 10.5449 7.40702L10.2829 7.60055L10.3812 7.9111C10.394 7.95129 10.3481 7.98461 10.3138 7.96004L10.0488 7.77062L9.78382 7.96004C9.74949 7.98456 9.70377 7.95129 9.71643 7.9111L9.81472 7.60055L9.55269 7.40702C9.51878 7.38191 9.53623 7.32818 9.57842 7.32781L9.90416 7.32533L10.0072 7.01631C10.0205 6.97633 10.0771 6.97633 10.0904 7.01631Z" fill="#F5F5F5"/>
<path d="M10.0904 8.6328L10.1935 8.94182L10.5192 8.9443C10.5614 8.94467 10.5788 8.99846 10.5449 9.02351L10.2829 9.21704L10.3812 9.5276C10.394 9.56778 10.3481 9.60111 10.3138 9.57653L10.0488 9.38711L9.78382 9.57653C9.74949 9.60105 9.70377 9.56783 9.71643 9.5276L9.81472 9.21704L9.55269 9.02351C9.51878 8.99841 9.53623 8.94467 9.57842 8.9443L9.90416 8.94182L10.0072 8.6328C10.0205 8.59278 10.0771 8.59278 10.0904 8.6328Z" fill="#F5F5F5"/>
<path d="M10.0904 10.2493L10.1935 10.5583L10.5192 10.5608C10.5614 10.5611 10.5788 10.6149 10.5449 10.64L10.2829 10.8335L10.3812 11.1441C10.394 11.1842 10.3481 11.2176 10.3138 11.193L10.0488 11.0036L9.78382 11.193C9.74949 11.2175 9.70377 11.1842 9.71643 11.1441L9.81472 10.8335L9.55269 10.64C9.51878 10.6149 9.53623 10.5611 9.57842 10.5608L9.90416 10.5583L10.0072 10.2493C10.0205 10.2092 10.0771 10.2092 10.0904 10.2493Z" fill="#F5F5F5"/>
<path d="M10.0904 11.8659L10.1935 12.1749L10.5192 12.1774C10.5614 12.1778 10.5788 12.2316 10.5449 12.2566L10.2829 12.4502L10.3812 12.7607C10.394 12.8009 10.3481 12.8342 10.3138 12.8096L10.0488 12.6202L9.78382 12.8096C9.74949 12.8342 9.70377 12.8009 9.71643 12.7607L9.81472 12.4502L9.55269 12.2566C9.51878 12.2315 9.53623 12.1778 9.57842 12.1774L9.90416 12.1749L10.0072 11.8659C10.0205 11.8259 10.0771 11.8259 10.0904 11.8659Z" fill="#F5F5F5"/>
<path d="M11.3452 6.22387L11.4482 6.53289L11.774 6.53537C11.8161 6.53574 11.8336 6.58953 11.7997 6.61457L11.5377 6.80811L11.636 7.11866C11.6487 7.15884 11.6029 7.19217 11.5686 7.1676L11.3036 6.97818L11.0386 7.1676C11.0043 7.19212 10.9585 7.15884 10.9712 7.11866L11.0695 6.80811L10.8074 6.61457C10.7735 6.58947 10.791 6.53574 10.8332 6.53537L11.1589 6.53289L11.262 6.22387C11.2753 6.18384 11.3318 6.18384 11.3452 6.22387Z" fill="#F5F5F5"/>
<path d="M11.3452 7.84028L11.4482 8.1493L11.774 8.15178C11.8161 8.15215 11.8336 8.20594 11.7997 8.23099L11.5377 8.42452L11.636 8.73508C11.6487 8.77526 11.6029 8.80859 11.5686 8.78401L11.3036 8.59459L11.0386 8.78401C11.0043 8.80854 10.9585 8.77526 10.9712 8.73508L11.0695 8.42452L10.8074 8.23099C10.7735 8.20589 10.791 8.15215 10.8332 8.15178L11.1589 8.1493L11.262 7.84028C11.2753 7.80031 11.3318 7.80031 11.3452 7.84028Z" fill="#F5F5F5"/>
<path d="M11.3452 9.45674L11.4482 9.76576L11.774 9.76824C11.8161 9.76861 11.8336 9.8224 11.7997 9.84745L11.5377 10.041L11.636 10.3515C11.6487 10.3917 11.6029 10.425 11.5686 10.4005L11.3036 10.211L11.0386 10.4005C11.0043 10.425 10.9585 10.3917 10.9712 10.3515L11.0695 10.041L10.8074 9.84745C10.7735 9.82235 10.791 9.76861 10.8332 9.76824L11.1589 9.76576L11.262 9.45674C11.2753 9.41676 11.3318 9.41676 11.3452 9.45674Z" fill="#F5F5F5"/>
<path d="M11.3452 11.0732L11.4482 11.3823L11.774 11.3847C11.8161 11.3851 11.8336 11.4389 11.7997 11.4639L11.5377 11.6575L11.636 11.968C11.6487 12.0082 11.6029 12.0415 11.5686 12.017L11.3036 11.8275L11.0386 12.017C11.0043 12.0415 10.9585 12.0082 10.9712 11.968L11.0695 11.6575L10.8074 11.4639C10.7735 11.4388 10.791 11.3851 10.8332 11.3847L11.1589 11.3823L11.262 11.0732C11.2753 11.0332 11.3318 11.0332 11.3452 11.0732Z" fill="#F5F5F5"/>
<path d="M11.3452 12.6897L11.4482 12.9987L11.774 13.0012C11.8161 13.0016 11.8336 13.0554 11.7997 13.0804L11.5377 13.274L11.636 13.5845C11.6487 13.6247 11.6029 13.658 11.5686 13.6335L11.3036 13.444L11.0386 13.6335C11.0043 13.658 10.9585 13.6247 10.9712 13.5845L11.0695 13.274L10.8074 13.0804C10.7735 13.0553 10.791 13.0016 10.8332 13.0012L11.1589 12.9987L11.262 12.6897C11.2753 12.6496 11.3318 12.6496 11.3452 12.6897Z" fill="#F5F5F5"/>
</g>
<defs>
<clipPath id="clip0_2004_266">
<rect width="27" height="27" fill="white" transform="translate(0 0.5)"/>
</clipPath>
</defs>
</svg>
